<svg xmlns="http://www.w3.org/2000/svg" xmlns:xlink="http://www.w3.org/1999/xlink" preserveAspectRatio="xMidYMid" width="119.281" height="124" viewBox="0 0 119.281 124">
  <defs>
    <style>
      .cls-1 {
        fill: #d84848;
      }

      .cls-1, .cls-2, .cls-3, .cls-4 {
        fill-rule: evenodd;
      }

      .cls-2 {
        fill: #aa1f1f;
      }

      .cls-3 {
        fill: #f57b71;
      }

      .cls-4 {
        fill: #daeaf2;
      }
    </style>
  </defs>
  <g>
    <path d="M119.281,13.999 L55.281,13.999 L55.281,80.000 L119.281,80.000 L99.125,47.000 L119.281,13.999 Z" class="cls-1"/>
    <path d="M55.281,66.749 L55.281,80.000 L72.281,69.000 L55.281,66.749 Z" class="cls-2"/>
    <path d="M72.281,68.999 L24.281,68.999 L5.937,4.999 L72.281,4.999 L72.281,68.999 Z" class="cls-3"/>
    <path d="M3.716,0.180 C6.384,-0.534 9.126,1.049 9.840,3.716 L40.381,117.695 C41.096,120.362 39.513,123.104 36.845,123.819 C34.178,124.533 31.436,122.951 30.722,120.283 L0.181,6.304 C-0.534,3.637 1.049,0.895 3.716,0.180 Z" class="cls-4"/>
  </g>
</svg>
