<svg xmlns="http://www.w3.org/2000/svg" xmlns:xlink="http://www.w3.org/1999/xlink" preserveAspectRatio="xMidYMid" width="116.406" height="36.281" viewBox="0 0 116.406 36.281">
  <defs>
    <style>
      .cls-1 {
        fill: #fff;
        fill-rule: evenodd;
      }
    </style>
  </defs>
  <path d="M116.416,29.282 L116.055,33.667 C113.871,35.388 111.716,36.269 109.599,36.269 C106.465,36.269 104.475,34.829 103.797,32.754 C102.019,34.872 99.775,36.269 96.557,36.269 C94.113,36.269 92.202,35.094 90.920,33.208 C89.115,34.239 85.115,36.333 80.254,36.269 C77.121,36.228 75.130,34.829 74.453,32.754 C72.674,34.829 70.515,36.269 67.212,36.269 C64.809,36.269 62.920,35.136 61.638,33.305 C56.562,35.655 53.443,36.269 51.376,36.269 C48.157,36.269 46.251,34.956 45.532,33.051 C43.203,35.211 40.747,36.269 37.952,36.269 C34.767,36.269 32.486,34.602 31.651,32.048 C26.853,34.592 22.470,36.079 16.793,36.269 C6.755,36.605 0.014,30.678 0.014,20.324 C0.014,8.209 8.340,-0.146 20.713,-0.010 C26.734,0.056 30.902,2.041 32.755,3.298 L29.402,10.930 C27.901,10.204 25.079,9.694 22.698,9.694 C16.588,9.694 13.606,13.659 13.435,18.781 C13.259,24.074 16.530,27.579 21.375,28.044 C26.164,28.503 29.584,27.402 31.677,26.480 L33.548,13.275 L43.796,13.275 L41.974,26.106 C41.805,27.250 42.525,28.181 43.584,28.181 C44.600,28.181 45.574,27.250 45.743,26.106 L47.564,13.275 L57.812,13.275 L55.822,27.546 C55.579,29.284 56.191,30.381 59.927,28.868 C59.793,28.066 59.717,27.229 59.717,26.360 C59.717,18.611 64.671,12.725 70.853,12.725 C73.309,12.725 74.961,13.783 76.189,15.477 L77.713,4.425 L87.961,4.425 L84.700,27.715 C84.494,29.329 85.220,30.536 89.203,28.452 C89.111,27.778 89.061,27.079 89.061,26.360 C89.061,18.780 94.015,12.725 100.198,12.725 C102.654,12.725 104.305,13.783 105.534,15.477 L105.830,13.275 L116.078,13.275 L114.045,27.715 C113.833,29.367 114.850,29.663 116.416,29.282 ZM73.309,20.686 C71.319,20.686 69.752,22.719 69.752,25.048 C69.752,26.826 70.684,28.223 72.251,28.223 C74.199,28.223 75.808,26.191 75.808,23.862 C75.808,22.083 74.834,20.686 73.309,20.686 ZM102.654,20.686 C100.664,20.686 99.097,22.719 99.097,25.048 C99.097,26.826 100.029,28.223 101.595,28.223 C103.543,28.223 105.153,26.191 105.153,23.862 C105.153,22.083 104.179,20.686 102.654,20.686 Z" class="cls-1"/>
</svg>
